<?xml version="1.0" standalone="no"?>
<!DOCTYPE svg PUBLIC "-//W3C//DTD SVG 20010904//EN"
 "http://www.w3.org/TR/2001/REC-SVG-20010904/DTD/svg10.dtd">
<svg version="1.0" xmlns="http://www.w3.org/2000/svg"
 width="32.000000pt" height="32.000000pt" viewBox="0 0 32.000000 32.000000"
 preserveAspectRatio="xMidYMid meet">

<g transform="translate(0.000000,32.000000) scale(0.100000,-0.100000)"
fill="#000000" stroke="none">
<path d="M95 306 c-101 -44 -125 -178 -46 -257 65 -65 157 -65 222 0 124 124
-15 327 -176 257z m64 -196 c0 -12 -2 -12 -13 3 -17 22 -52 22 -65 0 -19 -33
-12 9 10 57 l21 45 23 -45 c13 -25 24 -52 24 -60z m33 68 l15 -33 18 35 c10
19 20 30 22 23 2 -6 -6 -31 -18 -54 l-21 -43 -24 44 c-25 49 -28 60 -16 60 5
0 15 -15 24 -32z"/>
<path d="M106 165 c-9 -23 -8 -25 9 -25 17 0 19 9 6 28 -7 11 -10 10 -15 -3z"/>
</g>
</svg>
